<?xml version="1.0" standalone="no"?>
<!DOCTYPE svg PUBLIC "-//W3C//DTD SVG 20010904//EN"
 "http://www.w3.org/TR/2001/REC-SVG-20010904/DTD/svg10.dtd">
<svg version="1.0" xmlns="http://www.w3.org/2000/svg"
 width="389.000000pt" height="129.000000pt" viewBox="0 0 389.000000 129.000000"
 preserveAspectRatio="xMidYMid meet">
<metadata>
Created by potrace 1.16, written by Peter Selinger 2001-2019
</metadata>
<g transform="translate(0.000000,129.000000) scale(0.100000,-0.100000)"
fill="#000000" stroke="none">
<path d="M2160 1281 c-59 -19 -110 -54 -159 -107 -45 -49 -54 -54 -64 -41 -25
32 -82 57 -130 57 -86 0 -165 -60 -211 -159 -16 -37 -21 -66 -21 -146 0 -87 3
-107 27 -157 37 -79 93 -136 211 -213 56 -37 112 -77 124 -88 13 -11 24 -19
26 -16 1 2 15 22 30 45 15 23 83 90 150 151 131 118 189 186 233 273 23 45 29
71 32 145 3 83 1 94 -25 145 -45 89 -143 137 -223 111z m92 -77 c57 -51 73
-161 38 -261 -28 -80 -70 -139 -203 -286 -64 -70 -119 -136 -122 -147 -6 -19
-25 -28 -25 -12 0 4 -38 39 -85 77 -146 119 -188 186 -194 308 -4 94 11 152
51 201 40 48 82 69 123 62 37 -7 83 -48 91 -83 9 -33 31 -28 48 11 20 48 80
111 129 136 50 25 116 22 149 -6z"/>
<path d="M3009 1288 c0 -2 -1 -47 -3 -102 -2 -88 0 -101 18 -117 39 -37 92
-18 102 36 8 42 -32 133 -73 165 -22 17 -42 25 -44 18z"/>
<path d="M239 1171 c-122 -48 -206 -147 -223 -262 -9 -65 8 -82 81 -77 29 1
53 1 53 -1 0 -1 -21 -26 -46 -54 -69 -76 -98 -140 -99 -212 0 -69 14 -98 72
-142 33 -25 44 -28 112 -27 108 0 195 47 251 134 27 43 51 130 35 130 -4 0
-36 -27 -73 -60 -122 -112 -268 -158 -324 -103 -44 45 -23 117 60 197 59 57
116 93 197 122 67 24 86 44 69 72 -10 15 -28 17 -130 16 -66 0 -140 -3 -167
-7 -60 -8 -61 4 -6 66 48 55 138 103 224 118 33 6 71 16 85 23 30 14 37 47 15
70 -23 22 -126 21 -186 -3z"/>
<path d="M561 1003 c-46 -38 -67 -277 -36 -398 41 -155 145 -178 221 -49 39
67 64 157 64 234 0 101 -53 252 -79 224 -5 -5 -11 -67 -14 -139 -5 -124 -16
-178 -49 -243 -18 -35 -43 -45 -62 -26 -23 23 -20 101 9 243 26 125 25 151
-11 165 -21 8 -19 9 -43 -11z"/>
<path d="M1000 1010 c-74 -16 -129 -40 -135 -61 -7 -22 10 -49 32 -49 11 0 12
-9 8 -37 -11 -64 -16 -73 -37 -73 l-21 0 20 -22 c19 -22 19 -31 13 -153 -4
-71 -4 -134 0 -138 21 -23 70 94 70 168 0 45 19 35 83 -48 76 -98 139 -157
167 -157 11 0 20 4 20 10 0 14 -98 167 -152 238 -31 40 -44 64 -36 66 106 31
180 84 194 141 21 85 -92 142 -226 115z m159 -84 c27 -33 -84 -115 -157 -116
l-33 0 3 52 3 53 55 11 c77 16 116 16 129 0z"/>
<path d="M1370 1003 c-107 -55 -170 -277 -117 -415 49 -127 188 -155 260 -52
58 82 43 228 -37 354 -25 40 -32 59 -25 71 9 18 2 49 -11 49 -5 0 -14 2 -22 5
-7 3 -29 -3 -48 -12z m88 -172 c47 -94 44 -191 -10 -248 -28 -30 -59 -29 -89
3 -21 23 -24 35 -24 102 0 67 5 86 34 145 19 37 39 66 45 64 6 -1 26 -31 44
-66z"/>
<path d="M2466 973 c-3 -25 -21 -94 -40 -152 -45 -138 -60 -220 -52 -274 6
-41 30 -88 38 -77 9 12 83 212 104 284 43 140 23 266 -40 266 -2 0 -6 -21 -10
-47z"/>
<path d="M2718 1006 c-91 -25 -135 -76 -125 -148 9 -68 44 -94 149 -112 38 -6
69 -16 70 -21 1 -6 -43 -40 -97 -77 -55 -37 -121 -90 -147 -118 -65 -70 -65
-117 0 -72 15 10 75 45 135 77 169 92 217 142 196 203 -11 33 -45 52 -92 52
-87 1 -155 38 -143 77 8 26 44 41 114 49 68 8 82 17 82 55 0 48 -48 60 -142
35z"/>
<path d="M2978 1014 c-3 -3 -2 -21 4 -41 10 -38 7 -80 -23 -247 -21 -121 -17
-204 12 -239 9 -12 19 -20 21 -17 3 3 25 82 51 175 50 179 57 251 33 309 -20
48 -76 82 -98 60z"/>
<path d="M3250 994 c0 -15 -13 -42 -31 -62 -18 -20 -44 -61 -58 -92 -21 -46
-26 -70 -26 -145 0 -80 3 -95 27 -137 19 -32 41 -52 71 -67 56 -27 93 -27 147
2 113 59 121 222 19 382 -30 47 -30 50 -15 76 20 34 20 36 -5 49 -14 8 -29 8
-48 2 -20 -7 -32 -6 -46 4 -27 20 -35 17 -35 -12z m128 -194 c46 -96 30 -204
-34 -247 -32 -21 -68 -10 -98 30 -41 55 -16 179 55 279 21 29 23 30 37 12 8
-11 26 -44 40 -74z"/>
<path d="M3611 983 c-54 -53 -72 -119 -78 -274 -5 -125 8 -239 28 -239 24 0
50 97 73 274 9 69 21 123 28 128 7 4 30 8 50 8 54 0 64 -23 72 -155 3 -60 12
-133 21 -161 14 -50 48 -104 64 -104 4 0 11 91 14 202 6 226 2 245 -54 292
-29 25 -39 28 -84 23 -27 -2 -58 -8 -68 -12 -15 -6 -17 -4 -12 18 11 41 -13
41 -54 0z"/>
</g>
</svg>
